<?xml version="1.0" encoding='UTF-8' standalone='no' ?>
<!DOCTYPE score-partwise PUBLIC "-//Recordare//DTD MusicXML 2.0 Partwise//EN" "http://www.musicxml.org/dtds/partwise.dtd">
<score-partwise version="2.0">
 <work>
  <work-title>bFaaaP img2XML musicXML</work-title>
 </work>
 <identification>
  <creator type="composer">bFaaaP Team</creator>
  <rights>Copyright © 2021</rights>
  <encoding>
   <encoding-date>2020-11-04</encoding-date>
   <encoder>bFaaaP member</encoder>
   <software>img2XML ver 1.0</software>
   <software>Direct export, not from Dolet</software>
   <encoding-description>Sibelius / MusicXML 2.0</encoding-description>
   <supports element="print" type="yes" value="yes" attribute="new-system" />
   <supports element="print" type="yes" value="yes" attribute="new-page" />
   <supports element="accidental" type="yes" />
   <supports element="beam" type="yes" />
   <supports element="stem" type="yes" />
  </encoding>
 </identification>
 <defaults>
  <scaling>
   <millimeters>210</millimeters>
   <tenths>1400</tenths>
  </scaling>
  <page-layout>
   <page-height>1980</page-height>
   <page-width>1400</page-width>
   <page-margins type="both">
    <left-margin>100</left-margin>
    <right-margin>100</right-margin>
    <top-margin>100</top-margin>
    <bottom-margin>100</bottom-margin>
   </page-margins>
  </page-layout>
  <system-layout>
   <system-margins>
    <left-margin>22</left-margin>
    <right-margin>0</right-margin>
   </system-margins>
   <system-distance>52</system-distance>
  </system-layout>
  <appearance>
   <line-width type="stem">0.9375</line-width>
   <line-width type="beam">5</line-width>
   <line-width type="staff">0.9375</line-width>
   <line-width type="light barline">1.5625</line-width>
   <line-width type="heavy barline">5</line-width>
   <line-width type="leger">1.5625</line-width>
   <line-width type="ending">1.5625</line-width>
   <line-width type="wedge">1.25</line-width>
   <line-width type="enclosure">0.9375</line-width>
   <line-width type="tuplet bracket">1.25</line-width>
   <line-width type="bracket">5</line-width>
   <line-width type="dashes">1.5625</line-width>
   <line-width type="extend">0.9375</line-width>
   <line-width type="octave shift">1.5625</line-width>
   <line-width type="pedal">1.5625</line-width>
   <line-width type="slur middle">1.5625</line-width>
   <line-width type="slur tip">0.625</line-width>
   <line-width type="tie middle">1.5625</line-width>
   <line-width type="tie tip">0.625</line-width>
   <note-size type="cue">75</note-size>
   <note-size type="grace">60</note-size>
  </appearance>
  <music-font font-family="Opus Std" font-size="17.0079" />
  <lyric-font font-family="Plantin MT Std" font-size="9.8327" />
  <lyric-language xml:lang="en" />
 </defaults>

 <part-list>
  <score-part id="P1">
   <part-name> </part-name>
   <part-name-display>
    <display-text> </display-text>
   </part-name-display>
   <part-abbreviation> </part-abbreviation>
   <part-abbreviation-display>
    <display-text> </display-text>
   </part-abbreviation-display>
   <score-instrument id="P1-I1">
    <instrument-name> </instrument-name>
   </score-instrument>
  </score-part>
 </part-list>

<part id="P1">
   <measure number="1" width="360">
      <attributes>
         <divisions>256</divisions>
         <key>
            <fifths>1</fifths>
            <mode>major</mode>
         </key>
         <time>
            <beats>3</beats>
            <beat-type>4</beat-type>
         </time>
         <staves>1</staves>
         <clef>
            <sign>F</sign>
            <line>4</line>
         </clef>
      </attributes>
      <note>
         <pitch>
            <step>G</step>
            <octave>3</octave>
         </pitch>
         <duration>512</duration>
         <voice>1</voice>
         <type>half</type>
         <stem>down</stem>
         <staff>1</staff>
      </note>
      <note>
         <chord/>
         <pitch>
            <step>B</step>
            <octave>3</octave>
         </pitch>
         <duration>512</duration>
         <voice>1</voice>
         <type>half</type>
         <stem>down</stem>
         <staff>1</staff>
      </note>
      <note>
         <chord/>
         <pitch>
            <step>D</step>
            <octave>4</octave>
         </pitch>
         <duration>512</duration>
         <voice>1</voice>
         <type>half</type>
         <stem>down</stem>
         <staff>1</staff>
      </note>
      <note>
         <pitch>
            <step>A</step>
            <octave>3</octave>
         </pitch>
         <duration>256</duration>
         <voice>1</voice>
         <type>quarter</type>
         <stem>down</stem>
         <staff>1</staff>
      </note>
   </measure>
   <measure number="2" width="360">
      <note>
         <pitch>
            <step>B</step>
            <octave>3</octave>
         </pitch>
         <duration>768</duration>
         <voice>1</voice>
         <type>half</type>
         <dot/>
         <stem>down</stem>
         <staff>1</staff>
      </note>
   </measure>
   <measure number="3" width="360">
      <note>
         <pitch>
            <step>C</step>
            <octave>4</octave>
         </pitch>
         <duration>768</duration>
         <voice>1</voice>
         <type>half</type>
         <dot/>
         <stem>down</stem>
         <staff>1</staff>
      </note>
   </measure>
   <measure number="4" width="360">
      <note>
         <pitch>
            <step>B</step>
            <octave>3</octave>
         </pitch>
         <duration>768</duration>
         <voice>1</voice>
         <type>half</type>
         <dot/>
         <stem>down</stem>
         <staff>1</staff>
      </note>
   </measure>
   <measure number="5" width="360">
      <note>
         <pitch>
            <step>A</step>
            <octave>3</octave>
         </pitch>
         <duration>768</duration>
         <voice>1</voice>
         <type>half</type>
         <dot/>
         <stem>down</stem>
         <staff>1</staff>
      </note>
   </measure>
   <measure number="6" width="360">
      <note>
         <pitch>
            <step>G</step>
            <octave>3</octave>
         </pitch>
         <duration>768</duration>
         <voice>1</voice>
         <type>half</type>
         <dot/>
         <stem>down</stem>
         <staff>1</staff>
      </note>
   </measure>
   <measure number="7" width="360">
      <note>
         <pitch>
            <step>D</step>
            <octave>4</octave>
         </pitch>
         <duration>256</duration>
         <voice>1</voice>
         <type>quarter</type>
         <stem>down</stem>
         <staff>1</staff>
      </note>
      <note>
         <pitch>
            <step>B</step>
            <octave>3</octave>
         </pitch>
         <duration>256</duration>
         <voice>1</voice>
         <type>quarter</type>
         <stem>down</stem>
         <staff>1</staff>
      </note>
      <note>
         <pitch>
            <step>G</step>
            <octave>3</octave>
         </pitch>
         <duration>256</duration>
         <voice>1</voice>
         <type>quarter</type>
         <stem>down</stem>
         <staff>1</staff>
      </note>
   </measure>
   <measure number="8" width="360">
      <note>
         <pitch>
            <step>D</step>
            <octave>4</octave>
         </pitch>
         <duration>256</duration>
         <voice>1</voice>
         <type>quarter</type>
         <stem>down</stem>
         <staff>1</staff>
      </note>
      <note>
         <pitch>
            <step>D</step>
            <octave>3</octave>
         </pitch>
         <duration>128</duration>
         <voice>1</voice>
         <type>eighth</type>
         <stem>down</stem>
         <staff>1</staff>
         <beam number="1">continue</beam>
      </note>
      <note>
         <pitch>
            <step>C</step>
            <octave>4</octave>
         </pitch>
         <duration>128</duration>
         <voice>1</voice>
         <type>eighth</type>
         <stem>down</stem>
         <staff>1</staff>
         <beam number="1">continue</beam>
      </note>
      <note>
         <pitch>
            <step>B</step>
            <octave>3</octave>
         </pitch>
         <duration>128</duration>
         <voice>1</voice>
         <type>eighth</type>
         <stem>down</stem>
         <staff>1</staff>
         <beam number="1">continue</beam>
      </note>
      <note>
         <pitch>
            <step>A</step>
            <octave>3</octave>
         </pitch>
         <duration>128</duration>
         <voice>1</voice>
         <type>eighth</type>
         <stem>down</stem>
         <staff>1</staff>
         <beam number="1">end</beam>
      </note>
   </measure>
   <measure number="9" width="360">
      <note>
         <pitch>
            <step>B</step>
            <octave>3</octave>
         </pitch>
         <duration>512</duration>
         <voice>1</voice>
         <type>half</type>
         <stem>down</stem>
         <staff>1</staff>
      </note>
      <note>
         <pitch>
            <step>A</step>
            <octave>3</octave>
         </pitch>
         <duration>256</duration>
         <voice>1</voice>
         <type>quarter</type>
         <stem>down</stem>
         <staff>1</staff>
      </note>
   </measure>
   <measure number="10" width="360">
      <note>
         <pitch>
            <step>G</step>
            <octave>3</octave>
         </pitch>
         <duration>256</duration>
         <voice>1</voice>
         <type>quarter</type>
         <stem>down</stem>
         <staff>1</staff>
      </note>
      <note>
         <pitch>
            <step>B</step>
            <octave>3</octave>
         </pitch>
         <duration>256</duration>
         <voice>1</voice>
         <type>quarter</type>
         <stem>down</stem>
         <staff>1</staff>
      </note>
      <note>
         <pitch>
            <step>G</step>
            <octave>3</octave>
         </pitch>
         <duration>256</duration>
         <voice>1</voice>
         <type>quarter</type>
         <stem>down</stem>
         <staff>1</staff>
      </note>
   </measure>
   <measure number="11" width="360">
      <note>
         <pitch>
            <step>D</step>
            <octave>4</octave>
         </pitch>
         <duration>768</duration>
         <voice>1</voice>
         <type>half</type>
         <dot/>
         <stem>down</stem>
         <staff>1</staff>
      </note>
   </measure>
   <measure number="12" width="360">
      <note>
         <pitch>
            <step>B</step>
            <octave>3</octave>
         </pitch>
         <duration>256</duration>
         <voice>1</voice>
         <type>quarter</type>
         <stem>down</stem>
         <staff>1</staff>
      </note>
      <note>
         <pitch>
            <step>C</step>
            <octave>4</octave>
         </pitch>
         <duration>128</duration>
         <voice>1</voice>
         <type>eighth</type>
         <stem>down</stem>
         <staff>1</staff>
         <beam number="1">continue</beam>
      </note>
      <note>
         <pitch>
            <step>B</step>
            <octave>3</octave>
         </pitch>
         <duration>128</duration>
         <voice>1</voice>
         <type>eighth</type>
         <stem>down</stem>
         <staff>1</staff>
         <beam number="1">continue</beam>
      </note>
      <note>
         <pitch>
            <step>A</step>
            <octave>3</octave>
         </pitch>
         <duration>128</duration>
         <voice>1</voice>
         <type>eighth</type>
         <stem>down</stem>
         <staff>1</staff>
         <beam number="1">continue</beam>
      </note>
      <note>
         <pitch>
            <step>G</step>
            <octave>3</octave>
         </pitch>
         <duration>128</duration>
         <voice>1</voice>
         <type>eighth</type>
         <stem>down</stem>
         <staff>1</staff>
         <beam number="1">end</beam>
      </note>
   </measure>
   <measure number="13" width="360">
      <note>
         <pitch>
            <step>A</step>
            <octave>3</octave>
         </pitch>
         <duration>512</duration>
         <voice>1</voice>
         <type>half</type>
         <stem>down</stem>
         <staff>1</staff>
      </note>
      <note>
         <pitch>
            <step>F</step>
            <alter>1</alter>
            <octave>3</octave>
         </pitch>
         <duration>256</duration>
         <voice>1</voice>
         <type>quarter</type>
         <stem>down</stem>
         <staff>1</staff>
      </note>
   </measure>
   <measure number="14" width="360">
      <note>
         <pitch>
            <step>G</step>
            <octave>3</octave>
         </pitch>
         <duration>512</duration>
         <voice>1</voice>
         <type>half</type>
         <stem>down</stem>
         <staff>1</staff>
      </note>
      <note>
         <pitch>
            <step>B</step>
            <octave>3</octave>
         </pitch>
         <duration>256</duration>
         <voice>1</voice>
         <type>quarter</type>
         <stem>down</stem>
         <staff>1</staff>
      </note>
   </measure>
   <measure number="15" width="360">
      <note>
         <pitch>
            <step>B</step>
            <octave>3</octave>
         </pitch>
         <duration>256</duration>
         <voice>1</voice>
         <type>quarter</type>
         <stem>down</stem>
         <staff>1</staff>
      </note>
      <note>
         <pitch>
            <step>C</step>
            <octave>4</octave>
         </pitch>
         <duration>256</duration>
         <voice>1</voice>
         <type>quarter</type>
         <stem>down</stem>
         <staff>1</staff>
      </note>
      <note>
         <pitch>
            <step>B</step>
            <octave>2</octave>
         </pitch>
         <duration>256</duration>
         <voice>1</voice>
         <type>quarter</type>
         <stem>down</stem>
         <staff>1</staff>
      </note>
   </measure>
   <measure number="16" width="360">
      <note>
         <pitch>
            <step>G</step>
            <octave>3</octave>
         </pitch>
         <duration>512</duration>
         <voice>1</voice>
         <type>half</type>
         <stem>up</stem>
         <staff>1</staff>
      </note>
      <note>
         <pitch>
            <step>G</step>
            <octave>2</octave>
         </pitch>
         <duration>256</duration>
         <voice>1</voice>
         <type>quarter</type>
         <stem>up</stem>
         <staff>1</staff>
      </note>
   </measure>
   <measure number="17" width="360">
      <note>
         <pitch>
            <step>F</step>
            <alter>1</alter>
            <octave>3</octave>
         </pitch>
         <duration>384</duration>
         <voice>1</voice>
         <type>quarter</type>
         <dot/>
         <stem>up</stem>
         <staff>1</staff>
      </note>
   </measure>
   <measure number="18" width="360">
      <note>
         <pitch>
            <step>G</step>
            <octave>3</octave>
         </pitch>
         <duration>768</duration>
         <voice>1</voice>
         <type>half</type>
         <dot/>
         <stem>down</stem>
         <staff>1</staff>
      </note>
   </measure>
   <measure number="19" width="360">
      <note>
         <pitch>
            <step>F</step>
            <alter>1</alter>
            <octave>3</octave>
         </pitch>
         <duration>768</duration>
         <voice>1</voice>
         <type>half</type>
         <dot/>
         <stem>down</stem>
         <staff>1</staff>
      </note>
   </measure>
   <measure number="20" width="360">
      <note>
         <pitch>
            <step>E</step>
            <octave>3</octave>
         </pitch>
         <duration>256</duration>
         <voice>1</voice>
         <type>quarter</type>
         <stem>down</stem>
         <staff>1</staff>
      </note>
      <note>
         <pitch>
            <step>G</step>
            <octave>3</octave>
         </pitch>
         <duration>256</duration>
         <voice>1</voice>
         <type>quarter</type>
         <stem>down</stem>
         <staff>1</staff>
      </note>
      <note>
         <pitch>
            <step>E</step>
            <octave>3</octave>
         </pitch>
         <duration>256</duration>
         <voice>1</voice>
         <type>quarter</type>
         <stem>down</stem>
         <staff>1</staff>
      </note>
   </measure>
   <measure number="21" width="360">
      <note>
         <pitch>
            <step>A</step>
            <octave>3</octave>
         </pitch>
         <duration>512</duration>
         <voice>1</voice>
         <type>half</type>
         <stem>down</stem>
         <staff>1</staff>
      </note>
      <note>
         <pitch>
            <step>A</step>
            <octave>2</octave>
         </pitch>
         <duration>256</duration>
         <voice>1</voice>
         <type>quarter</type>
         <stem>up</stem>
         <staff>1</staff>
      </note>
   </measure>
   <measure number="22" width="360">
      <note>
         <pitch>
            <step>A</step>
            <octave>3</octave>
         </pitch>
         <duration>768</duration>
         <voice>1</voice>
         <type>half</type>
         <dot/>
         <stem>down</stem>
         <staff>1</staff>
      </note>
   </measure>
   <measure number="23" width="360">
      <note>
         <pitch>
            <step>B</step>
            <octave>3</octave>
         </pitch>
         <duration>256</duration>
         <voice>1</voice>
         <type>quarter</type>
         <stem>down</stem>
         <staff>1</staff>
      </note>
      <note>
         <pitch>
            <step>D</step>
            <octave>4</octave>
         </pitch>
         <duration>256</duration>
         <voice>1</voice>
         <type>quarter</type>
         <stem>down</stem>
         <staff>1</staff>
      </note>
      <note>
         <pitch>
            <step>C</step>
            <alter>1</alter>
            <octave>4</octave>
         </pitch>
         <duration>256</duration>
         <voice>1</voice>
         <type>quarter</type>
         <stem>down</stem>
         <staff>1</staff>
      </note>
   </measure>
   <measure number="24" width="360">
      <note>
         <pitch>
            <step>D</step>
            <octave>4</octave>
         </pitch>
         <duration>256</duration>
         <voice>1</voice>
         <type>quarter</type>
         <stem>down</stem>
         <staff>1</staff>
      </note>
      <note>
         <pitch>
            <step>F</step>
            <alter>1</alter>
            <octave>3</octave>
         </pitch>
         <duration>256</duration>
         <voice>1</voice>
         <type>quarter</type>
         <stem>down</stem>
         <staff>1</staff>
      </note>
      <note>
         <pitch>
            <step>A</step>
            <octave>3</octave>
         </pitch>
         <duration>256</duration>
         <voice>1</voice>
         <type>quarter</type>
         <stem>down</stem>
         <staff>1</staff>
      </note>
   </measure>
   <measure number="25" width="360">
      <note>
         <pitch>
            <step>D</step>
            <octave>4</octave>
         </pitch>
         <duration>256</duration>
         <voice>1</voice>
         <type>quarter</type>
         <stem>down</stem>
         <staff>1</staff>
      </note>
      <note>
         <pitch>
            <step>D</step>
            <octave>3</octave>
         </pitch>
         <duration>256</duration>
         <voice>1</voice>
         <type>quarter</type>
         <stem>down</stem>
         <staff>1</staff>
      </note>
      <note>
         <pitch>
            <step>C</step>
            <octave>4</octave>
         </pitch>
         <duration>256</duration>
         <voice>1</voice>
         <type>quarter</type>
         <stem>down</stem>
         <staff>1</staff>
      </note>
   </measure>
   <measure number="26" width="360">
      <note>
         <pitch>
            <step>B</step>
            <octave>3</octave>
         </pitch>
         <duration>512</duration>
         <voice>1</voice>
         <type>half</type>
         <stem>down</stem>
         <staff>1</staff>
      </note>
      <note>
         <pitch>
            <step>D</step>
            <octave>4</octave>
         </pitch>
         <duration>512</duration>
         <voice>2</voice>
         <type>half</type>
         <stem>up</stem>
         <staff>1</staff>
      </note>
      <note>
         <pitch>
            <step>B</step>
            <octave>3</octave>
         </pitch>
         <duration>256</duration>
         <voice>1</voice>
         <type>quarter</type>
         <stem>down</stem>
         <staff>1</staff>
      </note>
   </measure>
   <measure number="27" width="360">
      <note>
         <pitch>
            <step>C</step>
            <octave>4</octave>
         </pitch>
         <duration>512</duration>
         <voice>1</voice>
         <type>half</type>
         <stem>down</stem>
         <staff>1</staff>
      </note>
      <note>
         <pitch>
            <step>E</step>
            <octave>4</octave>
         </pitch>
         <duration>512</duration>
         <voice>2</voice>
         <type>half</type>
         <stem>up</stem>
         <staff>1</staff>
      </note>
      <note>
         <pitch>
            <step>C</step>
            <octave>4</octave>
         </pitch>
         <duration>256</duration>
         <voice>1</voice>
         <type>quarter</type>
         <stem>down</stem>
         <staff>1</staff>
      </note>
   </measure>
   <measure number="28" width="360">
      <note>
         <pitch>
            <step>B</step>
            <octave>3</octave>
         </pitch>
         <duration>256</duration>
         <voice>1</voice>
         <type>quarter</type>
         <stem>down</stem>
         <staff>1</staff>
      </note>
      <note>
         <pitch>
            <step>A</step>
            <octave>3</octave>
         </pitch>
         <duration>256</duration>
         <voice>1</voice>
         <type>quarter</type>
         <stem>down</stem>
         <staff>1</staff>
      </note>
      <note>
         <pitch>
            <step>G</step>
            <octave>3</octave>
         </pitch>
         <duration>256</duration>
         <voice>1</voice>
         <type>quarter</type>
         <stem>down</stem>
         <staff>1</staff>
      </note>
   </measure>
   <measure number="29" width="360">
      <note>
         <pitch>
            <step>D</step>
            <octave>4</octave>
         </pitch>
         <duration>512</duration>
         <voice>1</voice>
         <type>half</type>
         <stem>down</stem>
         <staff>1</staff>
      </note>
      <note>
         <rest/>
         <duration>256</duration>
         <voice>1</voice>
         <type>quarter</type>
         <staff>1</staff>
      </note>
   </measure>
   <measure number="30" width="360">
      <note>
         <pitch>
            <step>D</step>
            <octave>3</octave>
         </pitch>
         <duration>768</duration>
         <voice>1</voice>
         <type>half</type>
         <dot/>
         <stem>down</stem>
         <staff>1</staff>
      </note>
      <note>
         <rest/>
         <duration>256</duration>
         <voice>1</voice>
         <type>quarter</type>
         <staff>1</staff>
      </note>
      <note>
         <pitch>
            <step>F</step>
            <alter>1</alter>
            <octave>3</octave>
         </pitch>
         <duration>256</duration>
         <voice>2</voice>
         <type>quarter</type>
         <stem>up</stem>
         <staff>1</staff>
      </note>
   </measure>
   <measure number="31" width="360">
      <note>
         <pitch>
            <step>E</step>
            <octave>3</octave>
         </pitch>
         <duration>256</duration>
         <voice>1</voice>
         <type>quarter</type>
         <stem>down</stem>
         <staff>1</staff>
      </note>
      <note>
         <pitch>
            <step>G</step>
            <octave>3</octave>
         </pitch>
         <duration>256</duration>
         <voice>1</voice>
         <type>quarter</type>
         <stem>down</stem>
         <staff>1</staff>
      </note>
      <note>
         <pitch>
            <step>F</step>
            <alter>1</alter>
            <octave>3</octave>
         </pitch>
         <duration>256</duration>
         <voice>1</voice>
         <type>quarter</type>
         <stem>down</stem>
         <staff>1</staff>
      </note>
      <note>
         <pitch>
            <step>G</step>
            <octave>3</octave>
         </pitch>
         <duration>256</duration>
         <voice>1</voice>
         <type>quarter</type>
         <stem>down</stem>
         <staff>1</staff>
      </note>
      <note>
         <pitch>
            <step>B</step>
            <octave>2</octave>
         </pitch>
         <duration>256</duration>
         <voice>2</voice>
         <type>quarter</type>
         <stem>up</stem>
         <staff>1</staff>
      </note>
      <note>
         <pitch>
            <step>D</step>
            <octave>3</octave>
         </pitch>
         <duration>256</duration>
         <voice>1</voice>
         <type>quarter</type>
         <stem>down</stem>
         <staff>1</staff>
      </note>
   </measure>
   <measure number="32" width="360">
      <note>
         <pitch>
            <step>G</step>
            <octave>3</octave>
         </pitch>
         <duration>256</duration>
         <voice>1</voice>
         <type>quarter</type>
         <stem>up</stem>
         <staff>1</staff>
      </note>
      <note>
         <pitch>
            <step>D</step>
            <octave>3</octave>
         </pitch>
         <duration>256</duration>
         <voice>1</voice>
         <type>quarter</type>
         <stem>down</stem>
         <staff>1</staff>
      </note>
      <note>
         <pitch>
            <step>G</step>
            <octave>2</octave>
         </pitch>
         <duration>256</duration>
         <voice>1</voice>
         <type>quarter</type>
         <stem>up</stem>
         <staff>1</staff>
      </note>
      <attributes>
         <clef number="1">
            <sign>G</sign>
            <line>2</line>
         </clef>
      </attributes>
   </measure>
</part>

</score-partwise>